# xmcd CD database file
#
# Track frame offsets:
#	150
#	13239
#	29688
#	42619
#	54799
#	69462
#	80940
#	92661
#	105893
#	118911
#	134539
#	152893
#	167530
#
# Disc length: 2609 seconds
#
# Revision: 0
# Processed by: cddbd v1.5.2PL0 Copyright (c) Steve Scherf et al.
# Submitted via: CDex 1.70beta2
#
DISCID=b00a2f0d
DTITLE=Chris Jones and the Night Drivers - Lonely Comes Easy
DYEAR=2013
DGENRE=Country
TTITLE0=If That Was Love
TTITLE1=Lonely Comes Easy
TTITLE2=You're My family Now
TTITLE3=Wake Up Little Maggie
TTITLE4=Don't Blink
TTITLE5=One Who's Coming After Me
TTITLE6=Where Am I
TTITLE7=Too Hard To Say I'm Sorry
TTITLE8=Barn Burner
TTITLE9=Then I Close My Eyes
TTITLE10=Swine Flu in Union Country
TTITLE11=A few More Years
TTITLE12=Wolf Creek Pass
EXTD=YEAR: 2013
EXTT0=
EXTT1=
EXTT2=
EXTT3=
EXTT4=
EXTT5=
EXTT6=
EXTT7=
EXTT8=
EXTT9=
EXTT10=
EXTT11=
EXTT12=
PLAYORDER=
